<?xml version="1.0" encoding="UTF-8"?><svg fill-opacity="1" color-rendering="auto" color-interpolation="auto" text-rendering="auto" stroke="black" stroke-linecap="square" stroke-miterlimit="10" shape-rendering="auto" stroke-opacity="1" fill="black" preserveAspectRatio="xMinYMin meet" stroke-dasharray="none" font-weight="normal" stroke-width="1" viewBox="0 0 816 1056" font-family="'Dialog'" font-style="normal" stroke-linejoin="miter" font-size="12" stroke-dashoffset="0" image-rendering="auto" xmlns="http://www.w3.org/2000/svg">
<!--Generated by the Batik Graphics2D SVG Generator-->
<defs id="genericDefs"/>
<g>
<defs id="defs1">
<clipPath clipPathUnits="userSpaceOnUse" id="clipPath1">
<path d="M750 990 L777 990 L777 1008 L750 1008 L750 990 Z"/>
</clipPath>
<clipPath clipPathUnits="userSpaceOnUse" id="clipPath2">
<path d="M0 0 L816 0 L816 1056 L0 1056 L0 0 Z"/>
</clipPath>
</defs>
<g font-family="'Times New Roman'" font-size="15">
<text x="752" xml:space="preserve" y="1005" clip-path="url(#clipPath1)" stroke="none">2</text>
</g>
<g font-family="'Times New Roman'" font-size="19" font-weight="bold">
<text x="161" xml:space="preserve" y="93" clip-path="url(#clipPath2)" stroke="none">В</text>
<text x="173" xml:space="preserve" y="93" clip-path="url(#clipPath2)" stroke="none">а</text>
<text x="183" xml:space="preserve" y="93" clip-path="url(#clipPath2)" stroke="none">р</text>
<text x="193" xml:space="preserve" y="93" clip-path="url(#clipPath2)" stroke="none">і</text>
<text x="198" xml:space="preserve" y="93" clip-path="url(#clipPath2)" stroke="none">а</text>
<text x="208" xml:space="preserve" y="93" clip-path="url(#clipPath2)" stroke="none">н</text>
<text x="218" xml:space="preserve" y="93" clip-path="url(#clipPath2)" stroke="none">т</text>
<text x="232" xml:space="preserve" y="93" clip-path="url(#clipPath2)" stroke="none">№</text>
<text x="250" xml:space="preserve" y="93" clip-path="url(#clipPath2)" stroke="none">2</text>
<text x="260" xml:space="preserve" y="93" clip-path="url(#clipPath2)" stroke="none">8</text>
<text x="161" xml:space="preserve" y="127" clip-path="url(#clipPath2)" stroke="none">Т</text>
<text x="173" xml:space="preserve" y="127" clip-path="url(#clipPath2)" stroke="none">е</text>
<text x="182" xml:space="preserve" y="127" clip-path="url(#clipPath2)" stroke="none">м</text>
<text x="194" xml:space="preserve" y="127" clip-path="url(#clipPath2)" stroke="none">а</text>
<text x="208" xml:space="preserve" y="127" clip-path="url(#clipPath2)" stroke="none">р</text>
<text x="218" xml:space="preserve" y="127" clip-path="url(#clipPath2)" stroke="none">о</text>
<text x="228" xml:space="preserve" y="127" clip-path="url(#clipPath2)" stroke="none">б</text>
<text x="237" xml:space="preserve" y="127" clip-path="url(#clipPath2)" stroke="none">о</text>
<text x="246" xml:space="preserve" y="127" clip-path="url(#clipPath2)" stroke="none">т</text>
<text x="256" xml:space="preserve" y="127" clip-path="url(#clipPath2)" stroke="none">и</text>
<text x="266" xml:space="preserve" y="127" clip-path="url(#clipPath2)" stroke="none">:</text>
<text x="277 289 298 306 316 325 334 344 353 367 376 386 395 403 412 421 435 444 454 463 472 480 490 495 501 514 523 537 548 558 566 576 587 600 611" xml:space="preserve" y="127" font-weight="normal" stroke="none">СтворенняпростихсценаріївнамовіPHP.</text>
<text x="161" xml:space="preserve" y="160" clip-path="url(#clipPath2)" stroke="none">М</text>
<text x="179" xml:space="preserve" y="160" clip-path="url(#clipPath2)" stroke="none">е</text>
<text x="187" xml:space="preserve" y="160" clip-path="url(#clipPath2)" stroke="none">т</text>
<text x="196" xml:space="preserve" y="160" clip-path="url(#clipPath2)" stroke="none">а</text>
<text x="210" xml:space="preserve" y="160" clip-path="url(#clipPath2)" stroke="none">р</text>
<text x="220" xml:space="preserve" y="160" clip-path="url(#clipPath2)" stroke="none">о</text>
<text x="229" xml:space="preserve" y="160" clip-path="url(#clipPath2)" stroke="none">б</text>
<text x="239" xml:space="preserve" y="160" clip-path="url(#clipPath2)" stroke="none">о</text>
<text x="248" xml:space="preserve" y="160" clip-path="url(#clipPath2)" stroke="none">т</text>
<text x="257" xml:space="preserve" y="160" clip-path="url(#clipPath2)" stroke="none">и</text>
<text x="267" xml:space="preserve" y="160" clip-path="url(#clipPath2)" stroke="none">:</text>
<text x="279 292 301 310 320 332 341 351 360 374 383 393 401 410 419 428 438 448 458 472 482 490 499 508 518 523 536 546 555 562 572 581 590 600 615 624 634 643 651 660 669 683 692 702 711 720 728 737 743 748" xml:space="preserve" y="160" font-weight="normal" stroke="none">Одержанняпрактичнихнавиківрозробкипростихсценаріїв</text>
<text x="113 126 135 144 153 162 172 182 190 198 207 217 227 236 252 262 275 286" xml:space="preserve" y="182" font-weight="normal" stroke="none">звикористаннямPHP.</text>
<text x="348" xml:space="preserve" y="246" clip-path="url(#clipPath2)" stroke="none">Т</text>
<text x="360" xml:space="preserve" y="246" clip-path="url(#clipPath2)" stroke="none">е</text>
<text x="368" xml:space="preserve" y="246" clip-path="url(#clipPath2)" stroke="none">о</text>
<text x="377" xml:space="preserve" y="246" clip-path="url(#clipPath2)" stroke="none">р</text>
<text x="388" xml:space="preserve" y="246" clip-path="url(#clipPath2)" stroke="none">е</text>
<text x="396" xml:space="preserve" y="246" clip-path="url(#clipPath2)" stroke="none">т</text>
<text x="405" xml:space="preserve" y="246" clip-path="url(#clipPath2)" stroke="none">и</text>
<text x="416" xml:space="preserve" y="246" clip-path="url(#clipPath2)" stroke="none">ч</text>
<text x="426" xml:space="preserve" y="246" clip-path="url(#clipPath2)" stroke="none">н</text>
<text x="437" xml:space="preserve" y="246" clip-path="url(#clipPath2)" stroke="none">і</text>
<text x="447" xml:space="preserve" y="246" clip-path="url(#clipPath2)" stroke="none">в</text>
<text x="456" xml:space="preserve" y="246" clip-path="url(#clipPath2)" stroke="none">і</text>
<text x="462" xml:space="preserve" y="246" clip-path="url(#clipPath2)" stroke="none">д</text>
<text x="471" xml:space="preserve" y="246" clip-path="url(#clipPath2)" stroke="none">о</text>
<text x="481" xml:space="preserve" y="246" clip-path="url(#clipPath2)" stroke="none">м</text>
<text x="493" xml:space="preserve" y="246" clip-path="url(#clipPath2)" stroke="none">о</text>
<text x="502" xml:space="preserve" y="246" clip-path="url(#clipPath2)" stroke="none">с</text>
<text x="510" xml:space="preserve" y="246" clip-path="url(#clipPath2)" stroke="none">т</text>
<text x="519" xml:space="preserve" y="246" clip-path="url(#clipPath2)" stroke="none">і</text>
<text x="160 171 184 210 216 224 233 242 251 260 269 279 289 314 339 347 357 366 374 382 404 413 421 431 439 448 458 467 477 486 496 506 515 524 549 556 562 571 579 589 597 605 614 622 631 636 650" xml:space="preserve" y="302" font-weight="normal" stroke="none">РНР(створенийуякостіпередобробникагіпертекстів—</text>
<text fill="purple" x="684" xml:space="preserve" y="302" clip-path="url(#clipPath2)" stroke="none">H</text>
<text x="698 707 717 725 731 736 745 754" xml:space="preserve" y="302" font-weight="normal" stroke="none">ypertext</text>
<text fill="purple" x="113" xml:space="preserve" y="325" clip-path="url(#clipPath2)" stroke="none">P</text>
<text x="124 131 139 148 155 164 172 180 188 195 204 210 226 236 244 250 259 268 277 295 313 321 329 339 357 365 374 397 407 416 425 433 442 451 459 478 487 496 505 514 523 532 537 543 560 575 587 593 602 620 627 635 644 653 662 668 686 695 705 712 721 731 740 750" xml:space="preserve" y="325" font-weight="normal" stroke="none">reprocessor)увібраввсебевсюпростотусценаріївіміцьзасобіврозробки</text>
<text x="113 121 130 140 148 156 166 176 185 195 205 213 221 230 240 250 265 282 290 300 306 315 325 334 342 350 360 365 374 384 396 405 419 434 443 450 459 468 482 492 506 516 524 533 541 556 565 575 582 597 607 616 625 634 642 652 667 679 686 696 705 714 720 730 740 750" xml:space="preserve" y="348" font-weight="normal" stroke="none">серверноїчастиниWeb-додатків.ЯкщовзятидоувагийогопростийC-подібний</text>
<text x="113 122 132 141 150 158 167 176 185 194 211 220 225 235 243 253 263 274 283 305 314 323 333 342 347 355 365 374 386 395 404 409 418 427 433 448 457 478 488 496 515 525 534 544 553 563 579 588 598 604 612 621 630 639 648 655 664 673 678 687 696 705 714 723 733 742 750" xml:space="preserve" y="371" font-weight="normal" stroke="none">синтаксис,підтримкунайрізноманітнішихбазданих,об’єктно-орієнтовного</text>
<text x="114 123 129 138 147 157 166 191 213 225 235 247 257 267 275 280 288 297 322 331 339 346 356 365 379 388 397 406 416 425 433 459 468 477 486 495 505 515 523 531 540 550 560 568 589 597 622 631 639 648 657 682 689 698 708 715 725 736 741 751" xml:space="preserve" y="394" font-weight="normal" stroke="none">підходуіможливістьбезкоштовноговикористання,тостанезрозуміла</text>
<text x="113 121 130 139 147 156 165 178 187 201 210 220 230 239 249 257 267 276 281 289 298 311 323 333 342 356 366 380 390" xml:space="preserve" y="418" font-weight="normal" stroke="none">зростаючапопулярністьмовиРНР.</text>
<text x="161" xml:space="preserve" y="485" clip-path="url(#clipPath2)" stroke="none">П</text>
<text x="176" xml:space="preserve" y="485" clip-path="url(#clipPath2)" stroke="none">р</text>
<text x="186" xml:space="preserve" y="485" clip-path="url(#clipPath2)" stroke="none">и</text>
<text x="197" xml:space="preserve" y="485" clip-path="url(#clipPath2)" stroke="none">н</text>
<text x="207" xml:space="preserve" y="485" clip-path="url(#clipPath2)" stroke="none">ц</text>
<text x="218" xml:space="preserve" y="485" clip-path="url(#clipPath2)" stroke="none">и</text>
<text x="229" xml:space="preserve" y="485" clip-path="url(#clipPath2)" stroke="none">п</text>
<text x="239" xml:space="preserve" y="485" clip-path="url(#clipPath2)" stroke="none">и</text>
<text x="254" xml:space="preserve" y="485" clip-path="url(#clipPath2)" stroke="none">о</text>
<text x="264" xml:space="preserve" y="485" clip-path="url(#clipPath2)" stroke="none">б</text>
<text x="273" xml:space="preserve" y="485" clip-path="url(#clipPath2)" stroke="none">р</text>
<text x="283" xml:space="preserve" y="485" clip-path="url(#clipPath2)" stroke="none">о</text>
<text x="292" xml:space="preserve" y="485" clip-path="url(#clipPath2)" stroke="none">б</text>
<text x="302" xml:space="preserve" y="485" clip-path="url(#clipPath2)" stroke="none">к</text>
<text x="313" xml:space="preserve" y="485" clip-path="url(#clipPath2)" stroke="none">и</text>
<text x="327" xml:space="preserve" y="485" clip-path="url(#clipPath2)" stroke="none">с</text>
<text x="336" xml:space="preserve" y="485" clip-path="url(#clipPath2)" stroke="none">ц</text>
<text x="346" xml:space="preserve" y="485" clip-path="url(#clipPath2)" stroke="none">е</text>
<text x="355" xml:space="preserve" y="485" clip-path="url(#clipPath2)" stroke="none">н</text>
<text x="365" xml:space="preserve" y="485" clip-path="url(#clipPath2)" stroke="none">а</text>
<text x="374" xml:space="preserve" y="485" clip-path="url(#clipPath2)" stroke="none">р</text>
<text x="385" xml:space="preserve" y="485" clip-path="url(#clipPath2)" stroke="none">і</text>
<text x="390" xml:space="preserve" y="485" clip-path="url(#clipPath2)" stroke="none">ї</text>
<text x="396" xml:space="preserve" y="485" clip-path="url(#clipPath2)" stroke="none">в</text>
<text x="410" xml:space="preserve" y="485" clip-path="url(#clipPath2)" stroke="none">P</text>
<text x="421" xml:space="preserve" y="485" clip-path="url(#clipPath2)" stroke="none">H</text>
<text x="435" xml:space="preserve" y="485" clip-path="url(#clipPath2)" stroke="none">P</text>
<text x="161 174 183 193 209 217 223 238 248 257 262 271 280 288 297 305 314 324 331 347 356 366 375 385 392 400 409 425 434 443 452 461 471 481 490 498 513 521 530 540 549 564 573 588 598 607 615 625 637 646 656 666 681 689 698 707 716 725 735 745 754" xml:space="preserve" y="507" font-weight="normal" stroke="none">Коливідклієнтськогоброузеранадходитьзапитнаодержаннязвичайної</text>
<text x="113 121 130 139 148 154 163 173 187 201 212 229 240 249 258 272 289 298 307 313 321 330 339 348 356 371 380 389 398 408 417 426 440 449 458 466 474 484 494 503 518 527 537 546 554 562 577 586 596 604 613 619 628 638 647 656 661 670 678 691 700 706 716" xml:space="preserve" y="530" font-weight="normal" stroke="none">сторінкиHTML,тоWeb-сервервиконуєнаступнупроступослідовністьдій:</text>
<text x="161 171 180 194 203 212 221 226 238 252 263 275 285 291 298 307 317 327 335 345" xml:space="preserve" y="564" font-weight="normal" stroke="none">1.АналізHTTP-запиту.</text>
<text x="161 171 180 193 203 217 226 241 250 259 268 277 282 292 302 311 319 333 341 349 359 367 376 386 395 405 412 426 435 444 452 461 471 479 493 499 507 516 525 534 540 549 559 568 575" xml:space="preserve" y="598" font-weight="normal" stroke="none">2.Пошукпотрібногосерверногоресурсу(сторінки).</text>
<text x="161 171 180 193 202 211 219 229 237 246 260 269 278 288 297 312 321 329 337 345 359 368 378 383 392 401 409 419" xml:space="preserve" y="632" font-weight="normal" stroke="none">3.Передачаданихназадклієнту.</text>
<text x="161 180 189 199 208 216 225 235 249 256 265 275 284 293 307 315 323 332 342 348 357 367 376 385 395 409 417 426 435 444 453 468 476 485 494 505 513 522 532 541 549 558 571 582 595 605 611 620 630 639 648 656 665 671 676 686 695 704 712 721 730 739 748" xml:space="preserve" y="666" font-weight="normal" stroke="none">Увипадкузапитусторінки,доскладуякоївходятьPHP-сценарії,наведена</text>
<text x="114 123 132 146 163 173 182 190 199 205 214 224 233 242 247 256 264 280 290 296 313 322 330 340 349 357 367 377 390 398 407 415 424 432 445 462 471 480 486 494 503 513 521 529 547 564 573 581 591 603 620 629 639 649 657 666 676 693 703 713 722 731 741 750" xml:space="preserve" y="689" font-weight="normal" stroke="none">вищепослідовністьдійускладнюється.Web-сервервцьомувипадкуповинен</text>
<text x="114 123 132 141 151 160 169 178 192 201 211 219 228 233 246 258 267 277 286 296 306 315 330 338 348 357 365 380 388 394 403 412 422 431 439 447 455 464 472 486 493 502 512 521 530 540 554 564 574 589 598 608 616 625 634 643 653 662 673 683 692 701 710 718 726 736 745 751" xml:space="preserve" y="712" font-weight="normal" stroke="none">виконатианалізфайлу,доякоговідбуваєтьсязапит,апривиявленніоператорів</text>
<text x="113 124 137 162 171 180 189 199 208 218 226 235 259 267 272 282 292 301 310 315 325 335 345 368 374 383 392 400 410 419 429 437 445 453 461 471 480 499 526 534 543 553 563 586 595 604 614 623 637 646 656 665 677 701 710 719 726 736 745 754" xml:space="preserve" y="735" font-weight="normal" stroke="none">PHPвикликативідповіднийінтерпретатор.Утрохиспрощеномувигляді</text>
<text x="114 123 133 141 150 156 165 175 184 193 198 206 215 228 237 243 253 262 270 279 293 302 311 320 330 340 349 357 365 374 382 391 400 409 419 426 436 444 454 462 475 488 496 504 514 524 538 547 557 566 574 580 589" xml:space="preserve" y="758" font-weight="normal" stroke="none">послідовністьдій,якавиконується,виглядаєвтакийспосіб.</text>
<text x="161 171 180 194 203 212 221 226 238 252 263 275 285 291 298 307 317 327 335 345" xml:space="preserve" y="792" font-weight="normal" stroke="none">1.АналізHTTP-запиту.</text>
<text x="161 171 180 193 203 217 226 241 250 258 268 277 286 292 302 311 321 328 342 351 359 369 377 385 395 405 414 422 436 445 453 462 471 480 488 502 509 517 525 534 544 550 559 569 578 585" xml:space="preserve" y="826" font-weight="normal" stroke="none">2.Пошукнеобхідногосерверногоресурсу(сторінки).</text>
<text x="161 171 180 194 203 212 221 226 240 249 258 267 276 285 294 299 305 314 325 334 343 352 361 370 379 389 398 415 424 439 447 455 464 474 480 490 499 504 515 530 539 548 557 567 585 594 603 612 622 631 641 657 665 671 681 690 700 708 713 723 733 742 750" xml:space="preserve" y="860" font-weight="normal" stroke="none">3.Аналізсценаріїв,виявленихнасторінці,шляхомвикликувідповідного</text>
<text x="113 119 128 137 145 155 164 173 182 190 198 206 216 225 234" xml:space="preserve" y="883" font-weight="normal" stroke="none">інтерпретатора.</text>
<text x="161 171 180 193 202 211 219 229 237 246 260 269 278 285 294 307 317 326 331 340 349 357 367 375 385 395 403 410 420 429 437 446 456 469 478 487 497 506 514 523 532 538 547 557 567" xml:space="preserve" y="917" font-weight="normal" stroke="none">4.Передачаназадклієнтовірезультуючоїсторінки.</text>
<text x="161 175 183 193 202 211 217 227 236 258 266 272 281 289 298 307 317 326 335 344 361 375 397 407 427 435 444 453 462 468 478 487 493 510 524 546 555 564 573 582 591 599 607 616 624 632 653 662 671 676 685 694 703 711 719 729 738 750" xml:space="preserve" y="951" font-weight="normal" stroke="none">Необхідновідзначити,щонасторінці,щопередаєтьсяклієнтському</text>
<text x="113 123 132 141 151 158 166 176 185 195 204 216 230 239 253 264 269 277 286 295 304 312 321 334 344 349 357 367 377 390 399 409 418 427 435 445 450 456 464 473 479 494 505 510 519 529 542 549 558 568 578 586 596 610 619 628 637 643 652 660 667 676 685 694 703 713 721 730 739 750" xml:space="preserve" y="974" font-weight="normal" stroke="none">броузеру,вженеміститьсяніякихсценаріїв.Їхмісцезайнялидані,згенерованів</text>
</g>
</g>
</svg>
