<?xml version="1.0" encoding="UTF-8"?><svg fill-opacity="1" color-rendering="auto" color-interpolation="auto" text-rendering="auto" stroke="black" stroke-linecap="square" stroke-miterlimit="10" shape-rendering="auto" stroke-opacity="1" fill="black" preserveAspectRatio="xMinYMin meet" stroke-dasharray="none" font-weight="normal" stroke-width="1" viewBox="0 0 816 1056" font-family="'Dialog'" font-style="normal" stroke-linejoin="miter" font-size="12" stroke-dashoffset="0" image-rendering="auto" xmlns="http://www.w3.org/2000/svg">
<!--Generated by the Batik Graphics2D SVG Generator-->
<defs id="genericDefs"/>
<g>
<defs id="defs1">
<clipPath clipPathUnits="userSpaceOnUse" id="clipPath1">
<path d="M0 0 L816 0 L816 1056 L0 1056 L0 0 Z"/>
</clipPath>
</defs>
<g font-family="'Times New Roman'" font-size="19">
<text x="315 331 337 346 352 360 368 376 386 394 403 411 425 434 443 451 456 465 479 490 499 508 517 527 540 554 563 572 580 586 596" xml:space="preserve" y="93" stroke="none">МіністерствоосвітиінаукиУкраїни</text>
<text x="237 248 257 267 276 286 295 301 310 318 327 335 345 355 370 379 388 397 402 412 422 430 439 448 458 468 482 490 500 510 519 529 540 545 555 565 575 589 599 609 614 623 631 640 649 659 667 675" xml:space="preserve" y="125" stroke="none">Тернопільськийнаціональнийекономічнийуніверситет</text>
<text x="252 266 274 283 293 302 310 319 327 340 349 359 371 380 384 397 406 414 424 434 443 457 463 472 484 494 504 515 524 533 539 549 559 568 582 590 599 609 618 627 637 646 654 660" xml:space="preserve" y="157" stroke="none">Факультеткомп'ютернихінформаційнихтехнологій</text>
<text x="519" y="222" clip-path="url(#clipPath1)" font-style="italic" stroke="none" font-weight="bold" xml:space="preserve">К</text>
<text x="531" y="222" clip-path="url(#clipPath1)" font-style="italic" stroke="none" font-weight="bold" xml:space="preserve">а</text>
<text x="541" y="222" clip-path="url(#clipPath1)" font-style="italic" stroke="none" font-weight="bold" xml:space="preserve">ф</text>
<text x="554" y="222" clip-path="url(#clipPath1)" font-style="italic" stroke="none" font-weight="bold" xml:space="preserve">е</text>
<text x="562" y="222" clip-path="url(#clipPath1)" font-style="italic" stroke="none" font-weight="bold" xml:space="preserve">д</text>
<text x="571" y="222" clip-path="url(#clipPath1)" font-style="italic" stroke="none" font-weight="bold" xml:space="preserve">р</text>
<text x="581" y="222" clip-path="url(#clipPath1)" font-style="italic" stroke="none" font-weight="bold" xml:space="preserve">а</text>
<text x="595" y="222" clip-path="url(#clipPath1)" font-style="italic" stroke="none" font-weight="bold" xml:space="preserve">к</text>
<text x="604" y="222" clip-path="url(#clipPath1)" font-style="italic" stroke="none" font-weight="bold" xml:space="preserve">о</text>
<text x="614" y="222" clip-path="url(#clipPath1)" font-style="italic" stroke="none" font-weight="bold" xml:space="preserve">м</text>
<text x="626" y="222" clip-path="url(#clipPath1)" font-style="italic" stroke="none" font-weight="bold" xml:space="preserve">п</text>
<text x="636" y="222" clip-path="url(#clipPath1)" font-style="italic" stroke="none" font-weight="bold" xml:space="preserve">’</text>
<text x="642" y="222" clip-path="url(#clipPath1)" font-style="italic" stroke="none" font-weight="bold" xml:space="preserve">ю</text>
<text x="656" y="222" clip-path="url(#clipPath1)" font-style="italic" stroke="none" font-weight="bold" xml:space="preserve">т</text>
<text x="670" y="222" clip-path="url(#clipPath1)" font-style="italic" stroke="none" font-weight="bold" xml:space="preserve">е</text>
<text x="678" y="222" clip-path="url(#clipPath1)" font-style="italic" stroke="none" font-weight="bold" xml:space="preserve">р</text>
<text x="688" y="222" clip-path="url(#clipPath1)" font-style="italic" stroke="none" font-weight="bold" xml:space="preserve">н</text>
<text x="698" y="222" clip-path="url(#clipPath1)" font-style="italic" stroke="none" font-weight="bold" xml:space="preserve">и</text>
<text x="708" y="222" clip-path="url(#clipPath1)" font-style="italic" stroke="none" font-weight="bold" xml:space="preserve">х</text>
<text x="722" y="222" clip-path="url(#clipPath1)" font-style="italic" stroke="none" font-weight="bold" xml:space="preserve">н</text>
<text x="732" y="222" clip-path="url(#clipPath1)" font-style="italic" stroke="none" font-weight="bold" xml:space="preserve">а</text>
<text x="741" y="222" clip-path="url(#clipPath1)" font-style="italic" stroke="none" font-weight="bold" xml:space="preserve">у</text>
<text x="750" y="222" clip-path="url(#clipPath1)" font-style="italic" stroke="none" font-weight="bold" xml:space="preserve">к</text>
<text x="345" font-size="21" y="353" clip-path="url(#clipPath1)" stroke="none" font-weight="bold" xml:space="preserve">Л</text>
<text x="360" font-size="21" y="353" clip-path="url(#clipPath1)" stroke="none" font-weight="bold" xml:space="preserve">а</text>
<text x="371" font-size="21" y="353" clip-path="url(#clipPath1)" stroke="none" font-weight="bold" xml:space="preserve">б</text>
<text x="381" font-size="21" y="353" clip-path="url(#clipPath1)" stroke="none" font-weight="bold" xml:space="preserve">о</text>
<text x="392" font-size="21" y="353" clip-path="url(#clipPath1)" stroke="none" font-weight="bold" xml:space="preserve">р</text>
<text x="404" font-size="21" y="353" clip-path="url(#clipPath1)" stroke="none" font-weight="bold" xml:space="preserve">а</text>
<text x="414" font-size="21" y="353" clip-path="url(#clipPath1)" stroke="none" font-weight="bold" xml:space="preserve">т</text>
<text x="425" font-size="21" y="353" clip-path="url(#clipPath1)" stroke="none" font-weight="bold" xml:space="preserve">о</text>
<text x="435" font-size="21" y="353" clip-path="url(#clipPath1)" stroke="none" font-weight="bold" xml:space="preserve">р</text>
<text x="446" font-size="21" y="353" clip-path="url(#clipPath1)" stroke="none" font-weight="bold" xml:space="preserve">н</text>
<text x="459" font-size="21" y="353" clip-path="url(#clipPath1)" stroke="none" font-weight="bold" xml:space="preserve">а</text>
<text x="475" font-size="21" y="353" clip-path="url(#clipPath1)" stroke="none" font-weight="bold" xml:space="preserve">р</text>
<text x="487" font-size="21" y="353" clip-path="url(#clipPath1)" stroke="none" font-weight="bold" xml:space="preserve">о</text>
<text x="497" font-size="21" y="353" clip-path="url(#clipPath1)" stroke="none" font-weight="bold" xml:space="preserve">б</text>
<text x="508" font-size="21" y="353" clip-path="url(#clipPath1)" stroke="none" font-weight="bold" xml:space="preserve">о</text>
<text x="518" font-size="21" y="353" clip-path="url(#clipPath1)" stroke="none" font-weight="bold" xml:space="preserve">т</text>
<text x="529" font-size="21" y="353" clip-path="url(#clipPath1)" stroke="none" font-weight="bold" xml:space="preserve">а</text>
<text x="544" font-size="21" y="353" clip-path="url(#clipPath1)" stroke="none" font-weight="bold" xml:space="preserve">№</text>
<text x="566" font-size="21" y="353" clip-path="url(#clipPath1)" stroke="none" font-weight="bold" xml:space="preserve">1</text>
<text x="305" xml:space="preserve" y="387" clip-path="url(#clipPath1)" font-weight="bold" stroke="none">з</text>
<text x="317" xml:space="preserve" y="387" clip-path="url(#clipPath1)" font-weight="bold" stroke="none">д</text>
<text x="327" xml:space="preserve" y="387" clip-path="url(#clipPath1)" font-weight="bold" stroke="none">и</text>
<text x="337" xml:space="preserve" y="387" clip-path="url(#clipPath1)" font-weight="bold" stroke="none">с</text>
<text x="346" xml:space="preserve" y="387" clip-path="url(#clipPath1)" font-weight="bold" stroke="none">ц</text>
<text x="356" xml:space="preserve" y="387" clip-path="url(#clipPath1)" font-weight="bold" stroke="none">и</text>
<text x="367" xml:space="preserve" y="387" clip-path="url(#clipPath1)" font-weight="bold" stroke="none">п</text>
<text x="377" xml:space="preserve" y="387" clip-path="url(#clipPath1)" font-weight="bold" stroke="none">л</text>
<text x="388" xml:space="preserve" y="387" clip-path="url(#clipPath1)" font-weight="bold" stroke="none">і</text>
<text x="393" xml:space="preserve" y="387" clip-path="url(#clipPath1)" font-weight="bold" stroke="none">н</text>
<text x="404" xml:space="preserve" y="387" clip-path="url(#clipPath1)" font-weight="bold" stroke="none">и</text>
<text x="419 428 446 457 474 486 495 504 514 521 531 540 551 561 569 578 588 598 606" xml:space="preserve" y="387" stroke="none">«WEB-програмування»</text>
<text x="257" xml:space="preserve" y="420" clip-path="url(#clipPath1)" font-weight="bold" stroke="none">н</text>
<text x="267" xml:space="preserve" y="420" clip-path="url(#clipPath1)" font-weight="bold" stroke="none">а</text>
<text x="281" xml:space="preserve" y="420" clip-path="url(#clipPath1)" font-weight="bold" stroke="none">т</text>
<text x="290" xml:space="preserve" y="420" clip-path="url(#clipPath1)" font-weight="bold" stroke="none">е</text>
<text x="299" xml:space="preserve" y="420" clip-path="url(#clipPath1)" font-weight="bold" stroke="none">м</text>
<text x="311" xml:space="preserve" y="420" clip-path="url(#clipPath1)" font-weight="bold" stroke="none">у</text>
<text x="320 330 342 351 359 369 378 387 397 407 420 430 439 448 456 465 475 489 498 507 516 525 534 543 548 554 567 577 590 602 611 620 630 640 653" xml:space="preserve" y="420" stroke="none">:СтворенняпростихсценаріївнамовіPHP</text>
<line clip-path="url(#clipPath1)" fill="none" text-rendering="optimizeSpeed" x1="331" x2="663" y1="422" y2="422"/>
<text x="680" xml:space="preserve" y="724" clip-path="url(#clipPath1)" font-weight="bold" stroke="none">В</text>
<text x="693" xml:space="preserve" y="724" clip-path="url(#clipPath1)" font-weight="bold" stroke="none">и</text>
<text x="704" xml:space="preserve" y="724" clip-path="url(#clipPath1)" font-weight="bold" stroke="none">к</text>
<text x="714" xml:space="preserve" y="724" clip-path="url(#clipPath1)" font-weight="bold" stroke="none">о</text>
<text x="723" xml:space="preserve" y="724" clip-path="url(#clipPath1)" font-weight="bold" stroke="none">н</text>
<text x="734" xml:space="preserve" y="724" clip-path="url(#clipPath1)" font-weight="bold" stroke="none">а</text>
<text x="744" xml:space="preserve" y="724" clip-path="url(#clipPath1)" font-weight="bold" stroke="none">в</text>
<text x="753" xml:space="preserve" y="724" clip-path="url(#clipPath1)" font-weight="bold" stroke="none">:</text>
<text x="588 596 604 614 623 632 641 655 662 671 681 691 705 712 725 734 740 750" xml:space="preserve" y="749" stroke="none">студентгрупиІПЗ-32</text>
<text x="673 687 695 704 717 731 744 748 755" xml:space="preserve" y="774" stroke="none">ФатюкВ.І.</text>
<text x="656" xml:space="preserve" y="799" clip-path="url(#clipPath1)" font-weight="bold" stroke="none">П</text>
<text x="670" xml:space="preserve" y="799" clip-path="url(#clipPath1)" font-weight="bold" stroke="none">е</text>
<text x="679" xml:space="preserve" y="799" clip-path="url(#clipPath1)" font-weight="bold" stroke="none">р</text>
<text x="689" xml:space="preserve" y="799" clip-path="url(#clipPath1)" font-weight="bold" stroke="none">е</text>
<text x="698" xml:space="preserve" y="799" clip-path="url(#clipPath1)" font-weight="bold" stroke="none">в</text>
<text x="707" xml:space="preserve" y="799" clip-path="url(#clipPath1)" font-weight="bold" stroke="none">і</text>
<text x="712" xml:space="preserve" y="799" clip-path="url(#clipPath1)" font-weight="bold" stroke="none">р</text>
<text x="723" xml:space="preserve" y="799" clip-path="url(#clipPath1)" font-weight="bold" stroke="none">и</text>
<text x="733" xml:space="preserve" y="799" clip-path="url(#clipPath1)" font-weight="bold" stroke="none">л</text>
<text x="744" xml:space="preserve" y="799" clip-path="url(#clipPath1)" font-weight="bold" stroke="none">а</text>
<text x="753" xml:space="preserve" y="799" clip-path="url(#clipPath1)" font-weight="bold" stroke="none">:</text>
<text x="593 602 611 620 630 639 651 660 670 681 690 700 709 717 730 737 741 755" xml:space="preserve" y="823" stroke="none">викл.ДарморостІ.А.</text>
<text x="365" xml:space="preserve" y="952" clip-path="url(#clipPath1)" font-weight="bold" stroke="none">Т</text>
<text x="377" xml:space="preserve" y="952" clip-path="url(#clipPath1)" font-weight="bold" stroke="none">е</text>
<text x="386" xml:space="preserve" y="952" clip-path="url(#clipPath1)" font-weight="bold" stroke="none">р</text>
<text x="396" xml:space="preserve" y="952" clip-path="url(#clipPath1)" font-weight="bold" stroke="none">н</text>
<text x="406" xml:space="preserve" y="952" clip-path="url(#clipPath1)" font-weight="bold" stroke="none">о</text>
<text x="416" xml:space="preserve" y="952" clip-path="url(#clipPath1)" font-weight="bold" stroke="none">п</text>
<text x="426" xml:space="preserve" y="952" clip-path="url(#clipPath1)" font-weight="bold" stroke="none">і</text>
<text x="432" xml:space="preserve" y="952" clip-path="url(#clipPath1)" font-weight="bold" stroke="none">л</text>
<text x="442" xml:space="preserve" y="952" clip-path="url(#clipPath1)" font-weight="bold" stroke="none">ь</text>
<text x="456" xml:space="preserve" y="952" clip-path="url(#clipPath1)" font-weight="bold" stroke="none">–</text>
<text x="470" xml:space="preserve" y="952" clip-path="url(#clipPath1)" font-weight="bold" stroke="none">2</text>
<text x="479" xml:space="preserve" y="952" clip-path="url(#clipPath1)" font-weight="bold" stroke="none">0</text>
<text x="489" xml:space="preserve" y="952" clip-path="url(#clipPath1)" font-weight="bold" stroke="none">1</text>
<text x="498" xml:space="preserve" y="952" clip-path="url(#clipPath1)" font-weight="bold" stroke="none">8</text>
</g>
</g>
</svg>
