<?xml version="1.0" encoding="UTF-8"?><svg fill-opacity="1" color-rendering="auto" color-interpolation="auto" text-rendering="auto" stroke="black" stroke-linecap="square" stroke-miterlimit="10" shape-rendering="auto" stroke-opacity="1" fill="black" preserveAspectRatio="xMinYMin meet" stroke-dasharray="none" font-weight="normal" stroke-width="1" viewBox="0 0 816 1056" font-family="'Dialog'" font-style="normal" stroke-linejoin="miter" font-size="12" stroke-dashoffset="0" image-rendering="auto" xmlns="http://www.w3.org/2000/svg">
<!--Generated by the Batik Graphics2D SVG Generator-->
<defs id="genericDefs"/>
<g>
<defs id="defs1">
<clipPath clipPathUnits="userSpaceOnUse" id="clipPath1">
<path d="M750 990 L777 990 L777 1008 L750 1008 L750 990 Z"/>
</clipPath>
<clipPath clipPathUnits="userSpaceOnUse" id="clipPath2">
<path d="M0 0 L816 0 L816 1056 L0 1056 L0 0 Z"/>
</clipPath>
</defs>
<g font-family="'Times New Roman'" font-size="15">
<text x="752" xml:space="preserve" y="1005" clip-path="url(#clipPath1)" stroke="none">3</text>
</g>
<g font-family="'Times New Roman'" font-size="19">
<text x="114 123 133 143 152 160 168 181 186 196 205 214 223 235 241 250 259 267 277 286 296 304 312 321 330 336 341 353 372 380 388 396 404 413 422 432 441 453 470 479 489 498 507 516 525 541 550 558 568 577 589 606 615 624 634 644 656 673 684 694 707 722 732 741 750" xml:space="preserve" y="93" stroke="none">процесіїхньоїінтерпретації.Взагальномувипадкутакимиданимиможебути</text>
<text x="114 123 141 149 154 164 172 182 200 214 225 242 253 259 269 278 288 301 310 319 337 356 365 370 378 388 402 414 424 432 440 451 460 469 478 498 507 525 536 546 555 563 581 591 600 605 614 623 631 640 648 658 667 686 695 704 713 722 731 740 745 751" xml:space="preserve" y="116" stroke="none">нетількиHTML-код,алейрізніфрагментинамовахклієнтськихсценаріїв</text>
<text x="113 119 127 135 144 153 163 171 177 183 192 202 212 220 225 234 239 245" xml:space="preserve" y="139" stroke="none">(JavaScriptіт.д.).</text>
<text x="161 173 191 206 224 233 243 252 260 267 275 284 290 308 314 324 338 344 362 374 384 392 397 411 429 440 450 458 472 483 496 515 520 529 539 549 562 570 588 597 602 610 619 634 642 652 661 671 680 689 698 707 721 730 740 750" xml:space="preserve" y="173" stroke="none">Якіубудь-якійіншіймові,вмовіРНРіснуютьрізнівбудованітипи</text>
<text x="113 123 132 142 151 161" xml:space="preserve" y="196" stroke="none">даних.</text>
<path d="M120.7656 226.6406 Q120.7656 228.0625 119.7734 229.0547 Q118.7812 230.0469 117.375 230.0469 Q115.9688 230.0469 114.9766 229.0547 Q113.9844 228.0625 113.9844 226.6406 Q113.9844 225.25 114.9766 224.2578 Q115.9688 223.2656 117.375 223.2656 Q118.7812 223.2656 119.7734 224.2578 Q120.7656 225.25 120.7656 226.6406 Z" clip-path="url(#clipPath2)" stroke="none"/>
<text x="161 170 176 186 196" xml:space="preserve" y="232" stroke="none">цілий</text>
<path d="M120.7656 249.6406 Q120.7656 251.0625 119.7734 252.0547 Q118.7812 253.0469 117.375 253.0469 Q115.9688 253.0469 114.9766 252.0547 Q113.9844 251.0625 113.9844 249.6406 Q113.9844 248.25 114.9766 247.2578 Q115.9688 246.2656 117.375 246.2656 Q118.7812 246.2656 119.7734 247.2578 Q120.7656 248.25 120.7656 249.6406 Z" clip-path="url(#clipPath2)" stroke="none"/>
<text x="160 169 179 193 206 215 225 233 242 251 264 273 283 301 310 320 329 338 347 357" xml:space="preserve" y="255" stroke="none">типзплаваючоюкрапкою</text>
<path d="M120.7656 272.6406 Q120.7656 274.0625 119.7734 275.0547 Q118.7812 276.0469 117.375 276.0469 Q115.9688 276.0469 114.9766 275.0547 Q113.9844 274.0625 113.9844 272.6406 Q113.9844 271.25 114.9766 270.2578 Q115.9688 269.2656 117.375 269.2656 Q118.7812 269.2656 119.7734 270.2578 Q120.7656 271.25 120.7656 272.6406 Z" clip-path="url(#clipPath2)" stroke="none"/>
<text x="160 170 179 187 192 202 212 222 237 244 255 265 278 287 295 311 320 330 340 350 361 369 378 394 403 413 422 437 451 460 469 478 494 502 511 519 529 538 547 560 585 590 598 607 617 627 641 647 652 659 668 676 689 697 706 722 732 741 751" xml:space="preserve" y="278" stroke="none">логічний(можутьприйматиоднездвохзначень—істина(true)абохиба</text>
<text x="113 119 126 134 139 146 155 161" xml:space="preserve" y="300" stroke="none">(false))</text>
<path d="M120.7656 317.6406 Q120.7656 319.0625 119.7734 320.0547 Q118.7812 321.0469 117.375 321.0469 Q115.9688 321.0469 114.9766 320.0547 Q113.9844 319.0625 113.9844 317.6406 Q113.9844 316.25 114.9766 315.2578 Q115.9688 314.2656 117.375 314.2656 Q118.7812 314.2656 119.7734 315.2578 Q120.7656 316.25 120.7656 317.6406 Z" clip-path="url(#clipPath2)" stroke="none"/>
<text x="160 169 177 186 195 205 214 223 233" xml:space="preserve" y="323" stroke="none">строковий</text>
<path d="M120.7656 340.6406 Q120.7656 342.0625 119.7734 343.0547 Q118.7812 344.0469 117.375 344.0469 Q115.9688 344.0469 114.9766 343.0547 Q113.9844 342.0625 113.9844 340.6406 Q113.9844 339.25 114.9766 338.2578 Q115.9688 337.2656 117.375 337.2656 Q118.7812 337.2656 119.7734 338.2578 Q120.7656 339.25 120.7656 340.6406 Z" clip-path="url(#clipPath2)" stroke="none"/>
<text x="161 172 180 189 199 208" xml:space="preserve" y="346" stroke="none">масиви</text>
<path d="M120.7656 363.6406 Q120.7656 365.0625 119.7734 366.0547 Q118.7812 367.0469 117.375 367.0469 Q115.9688 367.0469 114.9766 366.0547 Q113.9844 365.0625 113.9844 363.6406 Q113.9844 362.25 114.9766 361.2578 Q115.9688 360.2656 117.375 360.2656 Q118.7812 360.2656 119.7734 361.2578 Q120.7656 362.25 120.7656 363.6406 Z" clip-path="url(#clipPath2)" stroke="none"/>
<text x="160 169 179 187 196" xml:space="preserve" y="369" stroke="none">класи</text>
<path d="M120.7656 387.6406 Q120.7656 389.0625 119.7734 390.0547 Q118.7812 391.0469 117.375 391.0469 Q115.9688 391.0469 114.9766 390.0547 Q113.9844 389.0625 113.9844 387.6406 Q113.9844 386.25 114.9766 385.2578 Q115.9688 384.2656 117.375 384.2656 Q118.7812 384.2656 119.7734 385.2578 Q120.7656 386.25 120.7656 387.6406 Z" clip-path="url(#clipPath2)" stroke="none"/>
<text x="160 169 179 193 207 220 232" xml:space="preserve" y="393" stroke="none">типNULL</text>
</g>
</g>
</svg>
